<?xml version="1.0" encoding="UTF-8"?>
<!DOCTYPE svg PUBLIC "-//W3C//DTD SVG 1.1//EN" "http://www.w3.org/Graphics/SVG/1.1/DTD/svg11.dtd">
<!-- Creator: CorelDRAW Home & Student X8 -->
<svg xmlns="http://www.w3.org/2000/svg" xml:space="preserve" width="175.083mm" height="52.9168mm" version="1.1" style="shape-rendering:geometricPrecision; text-rendering:geometricPrecision; image-rendering:optimizeQuality; fill-rule:evenodd; clip-rule:evenodd"
viewBox="0 0 17501 5290"
 xmlns:xlink="http://www.w3.org/1999/xlink">
 <defs>
  <style type="text/css">
   <![CDATA[
    .fil0 {fill:#EB6020}
    .fil1 {fill:#2B2A29;fill-rule:nonzero}
   ]]>
  </style>
 </defs>
 <g id="Layer_x0020_1">
  <metadata id="CorelCorpID_0Corel-Layer"/>
  <g id="_377912024">
   <path class="fil0" d="M3836 1083l-3619 1361c-216,74 -217,309 -217,309 1,729 0,2023 0,2537 1,-1895 588,-2073 588,-2073 469,-246 1550,2825 3249,1877 30,-62 -705,386 -2321,-2217l853 -330 1467 -1464z"/>
   <path class="fil0" d="M0 0l0 2258c0,-41 0,-57 93,-93l1145 -464 -1083 -742c0,0 -90,-53 -124,-155 -34,-102 -31,-575 -31,-804l0 0z"/>
  </g>
  <polygon class="fil1" points="4191,3925 3815,3925 3815,4934 3662,4934 3662,3925 3287,3925 3287,3805 4191,3805 "/>
  <polygon class="fil1" points="5199,4934 4508,4934 4508,3805 5170,3805 5170,3925 4660,3925 4660,4300 5132,4300 5132,4419 4660,4419 4660,4815 5199,4815 "/>
  <path class="fil1" d="M6449 4887c-96,44 -216,66 -360,66 -186,0 -334,-51 -446,-155 -111,-103 -167,-239 -167,-407 0,-181 63,-327 188,-438 126,-111 285,-167 478,-167 123,0 226,15 307,46l0 141c-93,-45 -197,-67 -309,-67 -150,0 -271,43 -364,130 -93,86 -140,202 -140,347 0,137 44,247 131,329 87,81 201,122 342,122 131,0 244,-25 340,-75l0 128 0 0z"/>
  <polygon class="fil1" points="7807,4934 7654,4934 7654,4419 6979,4419 6979,4934 6826,4934 6826,3805 6979,3805 6979,4300 7654,4300 7654,3805 7807,3805 "/>
  <path class="fil1" d="M9311 4934l-187 0 -671 -900c-17,-23 -31,-46 -42,-71l-5 0c5,24 7,76 7,155l0 816 -153 0 0 -1129 198 0 653 886c28,37 45,62 53,76l4 0c-6,-33 -9,-88 -9,-167l0 -795 152 0 0 1129 0 0z"/>
  <path class="fil1" d="M10291 4953c-185,0 -333,-53 -445,-158 -111,-106 -166,-243 -166,-412 0,-182 56,-327 170,-435 113,-108 267,-162 462,-162 181,0 326,52 436,157 110,105 165,243 165,412 0,185 -57,330 -169,438 -113,107 -264,160 -453,160zm11 -1047l0 0c-137,0 -249,42 -334,128 -86,85 -128,198 -128,337 0,139 41,251 125,336 83,85 192,127 326,127 143,0 256,-40 338,-121 82,-81 124,-194 124,-340 0,-149 -40,-264 -121,-345 -79,-82 -190,-122 -330,-122l0 0z"/>
  <polygon class="fil1" points="11957,4934 11281,4934 11281,3805 11434,3805 11434,4815 11957,4815 "/>
  <path class="fil1" d="M12731 4953c-185,0 -333,-53 -444,-158 -111,-106 -167,-243 -167,-412 0,-182 57,-327 170,-435 113,-108 268,-162 463,-162 180,0 325,52 435,157 110,105 165,243 165,412 0,185 -56,330 -169,438 -113,107 -264,160 -453,160l0 0zm11 -1047l0 0c-137,0 -248,42 -334,128 -85,85 -128,198 -128,337 0,139 42,251 125,336 84,85 192,127 326,127 143,0 256,-40 338,-121 83,-81 124,-194 124,-340 0,-149 -40,-264 -120,-345 -80,-82 -190,-122 -331,-122z"/>
  <path class="fil1" d="M14696 4857c-131,64 -276,96 -436,96 -186,0 -337,-52 -452,-156 -114,-104 -172,-241 -172,-413 0,-174 64,-318 191,-430 128,-112 290,-168 485,-168 142,0 261,20 358,60l0 146c-106,-58 -231,-86 -375,-86 -146,0 -266,43 -359,130 -94,87 -140,200 -140,339 0,143 43,255 130,337 86,81 204,122 353,122 102,0 190,-17 264,-53l0 -316 -285 0 0 -120 438 0 0 512 0 0z"/>
  <polygon class="fil1" points="15263,4934 15111,4934 15111,3805 15263,3805 "/>
  <polygon class="fil1" points="16409,4934 15718,4934 15718,3805 16380,3805 16380,3925 15871,3925 15871,4300 16342,4300 16342,4419 15871,4419 15871,4815 16409,4815 "/>
  <path class="fil1" d="M16711 4889l0 -156c21,15 45,30 74,42 29,13 59,23 91,32 32,9 64,15 96,20 32,5 62,7 89,7 94,0 164,-15 211,-45 46,-30 69,-74 69,-130 0,-31 -8,-57 -23,-80 -15,-23 -37,-43 -64,-62 -27,-19 -60,-36 -97,-53 -37,-17 -77,-35 -121,-54 -45,-20 -87,-41 -127,-61 -39,-20 -74,-43 -103,-68 -29,-24 -51,-52 -68,-84 -17,-31 -25,-67 -25,-110 0,-51 13,-96 39,-134 26,-38 60,-69 103,-94 42,-25 91,-43 145,-55 54,-12 109,-18 166,-18 128,0 222,13 281,40l0 149c-77,-46 -176,-69 -297,-69 -33,0 -66,3 -100,9 -33,6 -63,15 -89,29 -26,14 -47,31 -64,53 -16,21 -24,48 -24,79 0,29 6,54 19,74 12,22 30,41 55,58 24,17 54,34 88,51 35,16 75,34 121,53 46,20 90,41 133,63 41,22 78,47 109,73 32,27 57,57 76,89 18,33 27,70 27,112 0,56 -12,103 -37,141 -26,39 -60,71 -102,95 -43,24 -92,41 -148,52 -56,11 -115,16 -177,16 -20,0 -46,-1 -76,-4 -30,-3 -61,-7 -93,-13 -31,-5 -61,-12 -89,-20 -28,-8 -51,-17 -68,-27l0 0z"/>
  <g id="_377916512">
   <path class="fil1" d="M5084 3344l-715 0 -435 -826c-28,-67 -46,-112 -51,-136l-7 0 0 962 -589 0 0 -1366 589 -590 0 930 7 0c17,-49 36,-95 58,-137l390 -794 699 0 -556 933 610 1024 0 0z"/>
   <path class="fil1" d="M8038 2450c0,314 -71,547 -215,700 -143,152 -364,228 -662,228 -279,0 -490,-76 -634,-228 -144,-153 -216,-382 -216,-689l0 -1074 592 0 0 1096c0,126 23,222 70,290 47,68 114,102 201,102 89,0 156,-32 202,-96 45,-63 69,-158 69,-282l0 -1110 593 0 0 1063 0 0z"/>
   <path class="fil1" d="M10886 3344l-690 -944c-55,-75 -99,-142 -134,-202l-6 0c6,96 9,204 9,325l0 821 -546 0 0 -1957 556 0 662 898c9,12 19,26 30,43 12,16 24,33 36,50 12,17 23,34 33,51 11,16 19,30 24,43l6 0c-6,-40 -8,-109 -8,-207l0 -878 545 0 0 1957 -517 0 0 0z"/>
   <path class="fil1" d="M14265 2752c0,130 -35,243 -105,340 -69,96 -167,168 -292,215 -126,48 -277,71 -453,71 -205,0 -392,-34 -563,-104l0 -536c82,60 173,109 272,146 99,36 192,55 277,55 65,0 115,-12 150,-35 36,-23 53,-57 53,-102 0,-31 -9,-59 -26,-83 -18,-25 -45,-47 -81,-68 -36,-21 -102,-50 -200,-86 -314,-121 -472,-317 -472,-587 0,-189 72,-340 216,-453 144,-114 336,-170 578,-170 69,0 131,2 189,8 57,5 109,12 156,20 47,8 112,24 197,47l0 498c-164,-90 -327,-135 -486,-135 -65,0 -118,12 -158,37 -40,24 -60,58 -60,100 0,41 16,75 48,102 33,27 100,62 203,104 203,82 347,172 431,269 84,98 126,213 126,347z"/>
   <polygon class="fil1" points="16888,3344 16888,2614 16211,2614 16211,3344 15622,3344 15622,1387 16211,1387 16211,2112 16888,2112 16888,1387 17477,1387 17477,3344 "/>
  </g>
 </g>
</svg>
